<?xml version="1.0" encoding="UTF-8"?>
<svg version="1.1" xmlns="http://www.w3.org/2000/svg" width="256" height="256">
<path d="M0 0 C3.49700467 0.50276425 5.15217016 1.70011667 7.4453125 4.3515625 C10.12204902 8.94025367 9.4453125 11.50558579 9.4453125 17.3515625 C34.1953125 17.3515625 58.9453125 17.3515625 84.4453125 17.3515625 C84.4453125 14.7115625 84.4453125 12.0715625 84.4453125 9.3515625 C85.98243542 5.27818677 87.43628476 2.25057564 91.4453125 0.3515625 C95.29452311 -0.30956146 98.82138345 -0.52778497 102.328125 1.37109375 C104.99807695 3.50576548 106.35862832 5.09150997 107.4453125 8.3515625 C107.51272115 9.91274678 107.53045706 11.4765877 107.5078125 13.0390625 C107.49878906 13.84730469 107.48976562 14.65554688 107.48046875 15.48828125 C107.46306641 16.41060547 107.46306641 16.41060547 107.4453125 17.3515625 C108.59008057 17.33061523 109.73484863 17.30966797 110.91430664 17.28808594 C115.18387213 17.21538449 119.45338349 17.16965371 123.72338867 17.13183594 C125.56723244 17.11178889 127.41101318 17.0845437 129.25463867 17.04980469 C131.9134074 17.00098042 134.57133165 16.97852478 137.23046875 16.9609375 C138.04741714 16.94029236 138.86436554 16.91964722 139.70606995 16.89837646 C145.44455878 16.89615453 148.7353598 18.0297079 153.4453125 21.3515625 C157.00088267 25.93637666 158.57404554 29.40766402 158.556427 35.16946411 C158.5560997 36.161866 158.5557724 37.15426788 158.55543518 38.17674255 C158.55019333 39.26455521 158.54495148 40.35236786 158.53955078 41.47314453 C158.5367638 43.8501077 158.53409396 46.22707101 158.53152466 48.60403442 C158.52847446 49.86725651 158.52542427 51.13047859 158.52228165 52.43198013 C158.51212793 58.42262961 158.52820303 64.41320648 158.54210639 70.40383697 C158.56326591 79.60103993 158.57705746 88.79792695 158.54492188 97.99511719 C158.52333924 104.20089445 158.52661919 110.40611433 158.55833042 116.61185539 C158.57413105 119.89279891 158.57371272 123.17244072 158.55057144 126.45337296 C158.5263739 130.12100237 158.54564529 133.78607211 158.57470703 137.45361328 C158.54862617 139.06711418 158.54862617 139.06711418 158.52201843 140.71321106 C158.65325261 148.69659023 161.19880083 152.53192829 166.4453125 158.3515625 C175.77989506 174.47493237 178.09660458 192.6436809 173.35009766 210.54858398 C169.97372324 221.97945893 163.87425644 231.02576997 155.4453125 239.3515625 C154.83171875 239.98707031 154.218125 240.62257812 153.5859375 241.27734375 C142.29356998 252.15951844 126.51229002 256.95345121 111.1328125 256.7890625 C109.62895996 256.77770264 109.62895996 256.77770264 108.09472656 256.76611328 C90.53736502 256.37827734 76.81685435 249.70251942 64.4453125 237.3515625 C63.72214844 236.64 62.99898438 235.9284375 62.25390625 235.1953125 C57.30999438 230.01686971 50.4453125 221.861484 50.4453125 214.3515625 C49.1977417 214.36044495 47.9501709 214.36932739 46.66479492 214.378479 C34.89442171 214.45964668 23.12410545 214.51956736 11.35351562 214.55881119 C5.30245274 214.57966527 -0.74838378 214.60794368 -6.79931641 214.65332031 C-12.64132913 214.69685492 -18.48312442 214.720716 -24.32528687 214.73107147 C-26.55157899 214.7384491 -28.77785953 214.7528559 -31.00405884 214.77448273 C-34.12796531 214.80361723 -37.25097903 214.80751421 -40.375 214.80566406 C-41.29066238 214.82004517 -42.20632477 214.83442627 -43.1497345 214.84924316 C-49.71529815 214.80730467 -55.23655887 213.502444 -60.11624146 208.86871719 C-64.23175265 204.14390505 -64.68098757 200.64712895 -64.70185852 194.55281067 C-64.70553521 193.85760447 -64.7092119 193.16239827 -64.713 192.44612521 C-64.72403419 190.1109673 -64.72788024 187.7758539 -64.73168945 185.44067383 C-64.73795436 183.76850239 -64.74460118 182.09633234 -64.75160217 180.42416382 C-64.77264349 174.92731699 -64.78300528 169.43046989 -64.79296875 163.93359375 C-64.79701641 162.04083428 -64.80113334 160.14807495 -64.80531883 158.25531578 C-64.82437141 149.36207466 -64.83860176 140.46884184 -64.8469308 131.57558423 C-64.856701 121.31313496 -64.88301456 111.0509015 -64.92343169 100.78852826 C-64.95360486 92.85464859 -64.96840086 84.92083072 -64.97171181 76.98689479 C-64.97406113 72.2492358 -64.98300597 67.51180736 -65.00817299 62.77420998 C-65.03147943 58.31475795 -65.03567664 53.85568783 -65.02541161 49.39619064 C-65.02491674 47.76278983 -65.03122259 46.12937005 -65.04496765 44.49602699 C-65.16724077 29.10003482 -65.16724077 29.10003482 -60.5546875 22.3515625 C-55.24852114 17.30423352 -50.76672183 17.21054857 -43.73046875 17.25390625 C-42.43836739 17.25602867 -42.43836739 17.25602867 -41.12016296 17.25819397 C-38.36913581 17.2637911 -35.61819006 17.27634304 -32.8671875 17.2890625 C-31.0019543 17.29407787 -29.13671983 17.29864071 -27.27148438 17.30273438 C-22.69918739 17.31375958 -18.12695125 17.33102223 -13.5546875 17.3515625 C-13.57752808 16.42706299 -13.57752808 16.42706299 -13.60083008 15.48388672 C-13.61267334 14.6745166 -13.6245166 13.86514648 -13.63671875 13.03125 C-13.65955933 11.82831299 -13.65955933 11.82831299 -13.68286133 10.60107422 C-13.46505539 6.77847625 -11.57448531 4.61023187 -9.25390625 1.74609375 C-6.40465038 -0.59226106 -3.54714543 -0.11375685 0 0 Z " fill="#E9F3FB" transform="translate(72.5546875,-0.3515625)"/>
<path d="M0 0 C3.49700467 0.50276425 5.15217016 1.70011667 7.4453125 4.3515625 C10.12204902 8.94025367 9.4453125 11.50558579 9.4453125 17.3515625 C34.1953125 17.3515625 58.9453125 17.3515625 84.4453125 17.3515625 C84.4453125 14.7115625 84.4453125 12.0715625 84.4453125 9.3515625 C85.98243542 5.27818677 87.43628476 2.25057564 91.4453125 0.3515625 C95.29452311 -0.30956146 98.82138345 -0.52778497 102.328125 1.37109375 C104.99807695 3.50576548 106.35862832 5.09150997 107.4453125 8.3515625 C107.51272115 9.91274678 107.53045706 11.4765877 107.5078125 13.0390625 C107.49878906 13.84730469 107.48976562 14.65554688 107.48046875 15.48828125 C107.46306641 16.41060547 107.46306641 16.41060547 107.4453125 17.3515625 C108.59008057 17.33061523 109.73484863 17.30966797 110.91430664 17.28808594 C115.18387213 17.21538449 119.45338349 17.16965371 123.72338867 17.13183594 C125.56723244 17.11178889 127.41101318 17.0845437 129.25463867 17.04980469 C131.9134074 17.00098042 134.57133165 16.97852478 137.23046875 16.9609375 C138.04741714 16.94029236 138.86436554 16.91964722 139.70606995 16.89837646 C145.44455878 16.89615453 148.7353598 18.0297079 153.4453125 21.3515625 C166.01816646 37.56392682 158.4453125 54.14037974 158.4453125 77.3515625 C84.8553125 77.3515625 11.2653125 77.3515625 -64.5546875 77.3515625 C-64.5546875 30.3515625 -64.5546875 30.3515625 -60.5546875 22.3515625 C-55.24852114 17.30423352 -50.76672183 17.21054857 -43.73046875 17.25390625 C-42.43836739 17.25602867 -42.43836739 17.25602867 -41.12016296 17.25819397 C-38.36913581 17.2637911 -35.61819006 17.27634304 -32.8671875 17.2890625 C-31.0019543 17.29407787 -29.13671983 17.29864071 -27.27148438 17.30273438 C-22.69918739 17.31375958 -18.12695125 17.33102223 -13.5546875 17.3515625 C-13.57752808 16.42706299 -13.57752808 16.42706299 -13.60083008 15.48388672 C-13.61267334 14.6745166 -13.6245166 13.86514648 -13.63671875 13.03125 C-13.65955933 11.82831299 -13.65955933 11.82831299 -13.68286133 10.60107422 C-13.46505539 6.77847625 -11.57448531 4.61023187 -9.25390625 1.74609375 C-6.40465038 -0.59226106 -3.54714543 -0.11375685 0 0 Z " fill="#FE4055" transform="translate(72.5546875,-0.3515625)"/>
<path d="M0 0 C2.8356907 1.82181246 5.42560448 3.8273582 8 6 C8.59683594 6.47824219 9.19367188 6.95648438 9.80859375 7.44921875 C16.07318907 12.98829301 22.3788106 23.6377128 23.20874023 32.13793945 C23.83203687 47.58929531 23.14760558 59.16063924 12.6875 71.4375 C3.99194055 80.29301121 -5.22783142 87.14852209 -18 88 C-19.51013672 88.11214844 -19.51013672 88.11214844 -21.05078125 88.2265625 C-33.11128986 88.73635041 -43.81609416 85.78369727 -53.046875 77.80078125 C-53.69140625 77.20652344 -54.3359375 76.61226563 -55 76 C-55.62390625 75.47792969 -56.2478125 74.95585937 -56.890625 74.41796875 C-63.70157422 68.33253369 -69.31345579 58.07941916 -70.20288086 48.90795898 C-70.30468515 46.51771615 -70.32902332 44.14234035 -70.3125 41.75 C-70.30686035 40.9031665 -70.3012207 40.05633301 -70.29541016 39.18383789 C-70.04641133 26.36286391 -65.53822563 16.46954876 -56.625 7.1875 C-40.88013493 -7.69283837 -19.08251334 -10.37462846 0 0 Z " fill="#E9F4FB" transform="translate(207,151)"/>
<path d="M0 0 C1.1653125 0.00515625 2.330625 0.0103125 3.53125 0.015625 C4.6965625 0.01046875 5.861875 0.0053125 7.0625 0 C10.03125 0.265625 10.03125 0.265625 12.03125 2.265625 C12.2265625 4.6484375 12.2265625 4.6484375 12.15625 7.390625 C12.13820312 8.30070313 12.12015625 9.21078125 12.1015625 10.1484375 C12.07835937 10.84710938 12.05515625 11.54578125 12.03125 12.265625 C12.75828125 11.80671875 13.4853125 11.3478125 14.234375 10.875 C29.12928811 1.78528379 46.06890094 -2.65327894 63.49414062 0.74609375 C80.10926413 4.99804875 96.34243472 14.55499894 105.51074219 29.42358398 C114.95136216 45.88594738 117.81568116 64.08446116 112.93554688 82.4609375 C109.56460339 93.8928328 103.45908501 102.94092784 95.03125 111.265625 C94.41765625 111.90113281 93.8040625 112.53664063 93.171875 113.19140625 C81.87950748 124.07358094 66.09822752 128.86751371 50.71875 128.703125 C49.21489746 128.69176514 49.21489746 128.69176514 47.68066406 128.68017578 C30.12330252 128.29233984 16.40279185 121.61658192 4.03125 109.265625 C3.30808594 108.5540625 2.58492187 107.8425 1.83984375 107.109375 C-10.96099608 93.70128471 -13.47777265 77.81050866 -13.390625 60.01196289 C-13.21086144 52.48968559 -12.36991966 46.06796432 -8.96875 39.265625 C-8.52144531 38.32976562 -8.07414062 37.39390625 -7.61328125 36.4296875 C-4.46896968 30.275941 -0.76980565 24.27703618 4.03125 19.265625 C4.69125 19.265625 5.35125 19.265625 6.03125 19.265625 C6.03125 18.605625 6.03125 17.945625 6.03125 17.265625 C5.40476563 17.28882813 4.77828125 17.31203125 4.1328125 17.3359375 C2.90691406 17.36300781 2.90691406 17.36300781 1.65625 17.390625 C0.43808594 17.42542969 0.43808594 17.42542969 -0.8046875 17.4609375 C-2.96875 17.265625 -2.96875 17.265625 -4.96875 15.265625 C-5.234375 12.296875 -5.234375 12.296875 -5.21875 8.765625 C-5.22390625 7.6003125 -5.2290625 6.435 -5.234375 5.234375 C-4.86877441 1.1482508 -4.0861242 0.36560059 0 0 Z M19.03125 29.265625 C18.41894531 29.76449219 17.80664062 30.26335937 17.17578125 30.77734375 C9.94083009 37.11790801 4.61865964 47.64450767 3.88037109 57.22314453 C3.13420489 70.79980217 4.45557264 82.61238075 13.4375 93.49609375 C13.9634375 94.08003906 14.489375 94.66398437 15.03125 95.265625 C15.5778125 95.88050781 16.124375 96.49539062 16.6875 97.12890625 C24.46072806 105.37912785 34.19218653 110.57015497 45.59765625 111.58203125 C59.72166994 111.81057516 71.17900636 108.45000332 82.03125 99.265625 C82.94390625 98.51345703 82.94390625 98.51345703 83.875 97.74609375 C89.29902215 92.85733695 92.12107604 86.87883766 95.03125 80.265625 C95.59585938 79.17314453 95.59585938 79.17314453 96.171875 78.05859375 C99.37069742 67.66242088 98.41952883 53.26915125 93.515625 43.66796875 C86.14008273 31.73123587 76.77457173 22.2846332 63.03125 18.265625 C46.76857157 14.68783575 31.34113205 17.94250704 19.03125 29.265625 Z " fill="#50ABF6" transform="translate(132.96875,127.734375)"/>
<path d="M0 0 C14.10800386 -0.76374156 14.10800386 -0.76374156 20 4 C32.57285396 20.21236432 25 36.78881724 25 60 C-48.59 60 -122.18 60 -198 60 C-198 53.07 -198 46.14 -198 39 C-128.37 39 -58.74 39 13 39 C13.80529926 16.24023935 13.80529926 16.24023935 8 6 C5.97613931 4.1189932 5.97613931 4.1189932 3.75 3.0625 C2.49385599 2.38629109 1.24176695 1.70226141 0 1 C0 0.67 0 0.34 0 0 Z " fill="#FE4357" transform="translate(206,17)"/>
<path d="M0 0 C14.10800386 -0.76374156 14.10800386 -0.76374156 20 4 C23.50069649 8.514056 25.12875729 11.97353197 25.11352539 17.6550293 C25.11344986 18.59577805 25.11337433 19.53652679 25.11329651 20.50578308 C25.10813522 21.51836685 25.10297394 22.53095062 25.09765625 23.57421875 C25.09553383 25.13267265 25.09553383 25.13267265 25.09336853 26.72261047 C25.08776656 30.04426948 25.07521372 33.36586133 25.0625 36.6875 C25.05748525 38.93815007 25.0529223 41.18880119 25.04882812 43.43945312 C25.03779649 48.95965837 25.02105643 54.47982439 25 60 C23.02090602 60.02686553 21.04171029 60.04633375 19.0625 60.0625 C17.96035156 60.07410156 16.85820312 60.08570313 15.72265625 60.09765625 C13 60 13 60 12 59 C12 55.04 12 51.08 12 47 C-57.3 47 -126.6 47 -198 47 C-198 44.36 -198 41.72 -198 39 C-128.37 39 -58.74 39 13 39 C13.80529926 16.24023935 13.80529926 16.24023935 8 6 C5.97613931 4.1189932 5.97613931 4.1189932 3.75 3.0625 C2.49385599 2.38629109 1.24176695 1.70226141 0 1 C0 0.67 0 0.34 0 0 Z " fill="#E80254" transform="translate(206,17)"/>
<path d="M0 0 C2 3 2 3 3.3125 5.9375 C5.45991101 9.83465331 8.03996339 12.01998169 12 14 C13.33004516 14.10290671 14.66496404 14.14639842 15.99893188 14.15821838 C16.83468246 14.1680072 17.67043304 14.17779602 18.5315094 14.18788147 C19.90930824 14.19651466 19.90930824 14.19651466 21.31494141 14.20532227 C22.28083694 14.21522186 23.24673248 14.22512146 24.24189758 14.23532104 C27.44509401 14.26699216 30.64830528 14.29171565 33.8515625 14.31640625 C36.06831251 14.33697093 38.28505855 14.35796727 40.50180054 14.37937927 C46.34449051 14.43465012 52.18721616 14.48403727 58.02996826 14.53222656 C63.98876125 14.58240502 69.94750225 14.63811014 75.90625 14.69335938 C87.60412228 14.80100226 99.30203965 14.90243359 111 15 C111 11.37 111 7.74 111 4 C111.33 4 111.66 4 112 4 C112.04898438 5.17175781 112.09796875 6.34351563 112.1484375 7.55078125 C112.22357397 9.13803907 112.29911686 10.7252777 112.375 12.3125 C112.4059375 13.07884766 112.436875 13.84519531 112.46875 14.63476562 C112.69141533 19.1066277 113.19891173 23.40999493 114.02587891 27.81323242 C114.29871201 29.27680428 114.29871201 29.27680428 114.57705688 30.76994324 C114.71662811 31.50586197 114.85619934 32.2417807 115 33 C101.96946252 33.09277473 88.93900391 33.16380324 75.90820312 33.20724869 C69.85714024 33.22810277 63.80630372 33.25638118 57.75537109 33.30175781 C51.91335837 33.34529242 46.07156308 33.3691535 40.22940063 33.37950897 C38.00310851 33.3868866 35.77682797 33.4012934 33.55062866 33.42292023 C30.42672219 33.45205473 27.30370847 33.45595171 24.1796875 33.45410156 C22.80619392 33.47567322 22.80619392 33.47567322 21.404953 33.49768066 C14.83938935 33.45574217 9.31812863 32.1508815 4.43844604 27.51715469 C0.97884494 23.54536006 -0.13054746 20.49595108 -0.09765625 15.33203125 C-0.09443359 14.43935547 -0.09121094 13.54667969 -0.08789062 12.62695312 C-0.07951172 11.69818359 -0.07113281 10.76941406 -0.0625 9.8125 C-0.05798828 8.87212891 -0.05347656 7.93175781 -0.04882812 6.96289062 C-0.03704626 4.64186288 -0.02059558 2.32096356 0 0 Z " fill="#D2DCFA" transform="translate(8,181)"/>
<path d="M0 0 C14.78825077 -1.56581479 27.78469242 5.55559419 39.0625 14.40234375 C51.46345576 24.71488033 58.83014853 38.96720857 61 55 C62.18467552 72.51766092 58.85247171 88.66374127 47.828125 102.78125 C45.63645256 105.29033707 43.36971947 107.65928059 41 110 C40.38640625 110.63550781 39.7728125 111.27101563 39.140625 111.92578125 C28.72821097 121.95996657 14.08822542 127.24279979 -0.1875 127.1875 C-2.45869551 127.13994755 -4.72981327 127.08271935 -7 127 C-7 126.67 -7 126.34 -7 126 C-6.24976563 125.82984375 -5.49953125 125.6596875 -4.7265625 125.484375 C6.74465776 122.76826743 15.58947677 119.16445758 25 112 C26.03125 111.2575 27.0625 110.515 28.125 109.75 C35.37854614 102.81182543 40.5364361 94.38711488 44 85 C44.25966553 84.29681641 44.51933105 83.59363281 44.78686523 82.86914062 C47.0811508 76.07549478 47.50579474 69.76342646 47.4375 62.625 C47.42992676 61.51882324 47.42235352 60.41264648 47.41455078 59.27294922 C47.25839733 51.55988068 46.52064281 44.96451149 43 38 C42.57589844 37.08863281 42.15179688 36.17726562 41.71484375 35.23828125 C32.6455954 17.12504708 18.53395291 7.53687136 0 1 C0 0.67 0 0.34 0 0 Z " fill="#1A87EA" transform="translate(187,129)"/>
<path d="M0 0 C15.73401775 -0.40286247 27.74064869 1.65381235 40 12 C40.59683594 12.47824219 41.19367188 12.95648438 41.80859375 13.44921875 C48.07318907 18.98829301 54.3788106 29.6377128 55.20874023 38.13793945 C55.83203687 53.58929531 55.14760558 65.16063924 44.6875 77.4375 C34.80054864 87.50631836 24.90632395 93.84368003 10.45703125 94.05078125 C6.9704881 94.06127235 3.48624167 94.04351758 0 94 C0 93.67 0 93.34 0 93 C0.75023437 92.91363281 1.50046875 92.82726562 2.2734375 92.73828125 C13.6859154 91.17158088 24.31239212 86.71114467 31.91015625 77.74609375 C41.43359483 64.82575988 43.91169577 50.66903466 41.5390625 34.9453125 C39.26945638 26.58782173 34.56722337 18.65086662 28 13 C27.02933594 12.15308594 27.02933594 12.15308594 26.0390625 11.2890625 C18.05883524 4.65287351 10.31765284 1.66565502 0 1 C0 0.67 0 0.34 0 0 Z " fill="#D1DBFA" transform="translate(175,145)"/>
<path d="M0 0 C3.57052209 1.93341549 5.69451966 4.08355899 7 8 C7.16533081 12.60570101 6.99529605 17.20654913 6.875 21.8125 C6.8646875 23.08416016 6.854375 24.35582031 6.84375 25.66601562 C6.55822565 36.14805375 6.55822565 36.14805375 3.5703125 39.82421875 C0.57123738 42.36294951 -0.34921157 42.92490903 -4.25 43.375 C-9.21442386 42.87855761 -10.55704915 41.52492587 -14 38 C-15.70088107 32.89735678 -15.512184 27.53255971 -15.75 22.1875 C-15.81832031 21.01123047 -15.88664063 19.83496094 -15.95703125 18.62304688 C-16.26975486 11.53063576 -16.2064023 6.69969496 -11.375 1.125 C-7.60823446 -0.65925736 -4.07801406 -0.76903725 0 0 Z " fill="#D4DBF9" transform="translate(173,0)"/>
<path d="M0 0 C3.49700467 0.50276425 5.15217016 1.70011667 7.4453125 4.3515625 C10.33747375 10.21280753 9.53383259 15.97864287 9.2578125 22.3515625 C9.22623047 23.5271875 9.19464844 24.7028125 9.16210938 25.9140625 C9.09540039 27.615625 9.09540039 27.615625 9.02734375 29.3515625 C8.98843018 30.3828125 8.9495166 31.4140625 8.90942383 32.4765625 C8.25192056 36.54955486 6.53367282 39.22433217 3.6953125 42.1640625 C0.36344184 43.92254979 -1.83815723 43.86418737 -5.5546875 43.3515625 C-8.52515623 41.56132465 -10.97971164 39.50151422 -12.5546875 36.3515625 C-12.98211283 31.75839052 -13.11677732 27.14744515 -13.3046875 22.5390625 C-13.37300781 21.25451172 -13.44132812 19.96996094 -13.51171875 18.64648438 C-13.56199219 17.40833984 -13.61226562 16.17019531 -13.6640625 14.89453125 C-13.71530273 13.76039795 -13.76654297 12.62626465 -13.81933594 11.45776367 C-13.45966423 7.23626626 -11.70700397 4.83915749 -9.171875 1.56640625 C-6.33583513 -0.56404882 -3.41910037 -0.10965045 0 0 Z " fill="#D4DBF9" transform="translate(72.5546875,-0.3515625)"/>
<path d="M0 0 C3.96 0 7.92 0 12 0 C12 23.43 12 46.86 12 71 C9.36 69.02 6.72 67.04 4 65 C2.01099578 63.65031856 0.01536763 62.30998896 -2 61 C-1.01 60.505 -1.01 60.505 0 60 C0 40.2 0 20.4 0 0 Z " fill="#D2DCFB" transform="translate(219,77)"/>
<path d="M0 0 C0.66 0.33 1.32 0.66 2 1 C2.3721042 2.32303717 2.70630173 3.65737935 3 5 C3.33 5.33 3.66 5.66 4 6 C4.24252825 10.22035905 4.22853321 14.4465382 4.24023438 18.6730957 C4.24991343 20.79353455 4.28091033 22.91299314 4.3125 25.03320312 C4.31903265 26.38280674 4.32428209 27.7324173 4.328125 29.08203125 C4.34214355 30.92631714 4.34214355 30.92631714 4.35644531 32.80786133 C3.97774967 36.1992624 3.3088913 37.55356584 1 40 C-0.875 39.6875 -0.875 39.6875 -3 39 C-6.35520396 33.96719406 -5.6079514 28.04801602 -5.8125 22.125 C-5.87630859 20.84496094 -5.94011719 19.56492187 -6.00585938 18.24609375 C-6.05162109 17.01246094 -6.09738281 15.77882813 -6.14453125 14.5078125 C-6.18940674 13.38004395 -6.23428223 12.25227539 -6.28051758 11.09033203 C-5.84225428 6.26218859 -3.52675053 3.19086953 0 0 Z " fill="#EAF4FB" transform="translate(65,0)"/>
<path d="M0 0 C1.9375 0.25 1.9375 0.25 4 1 C7.18381878 5.77572817 6.33327105 11.24044056 6.31567383 16.82397461 C6.31251607 18.9267978 6.33597128 21.02821031 6.36132812 23.13085938 C6.36360152 24.4713524 6.36430443 25.81184919 6.36328125 27.15234375 C6.36626221 28.36913818 6.36924316 29.58593262 6.37231445 30.83959961 C5.97614921 34.202458 5.2866717 35.56670318 3 38 C1.125 37.75 1.125 37.75 -1 37 C-4.25127373 32.03544136 -3.59666484 25.84932391 -3.8125 20.125 C-3.87630859 18.95324219 -3.94011719 17.78148437 -4.00585938 16.57421875 C-4.43620982 5.89425419 -4.43620982 5.89425419 -1 1 C-0.67 0.67 -0.34 0.34 0 0 Z " fill="#EAF4FB" transform="translate(161,2)"/>
<path d="M0 0 C1.1653125 0.00515625 2.330625 0.0103125 3.53125 0.015625 C4.6965625 0.01046875 5.861875 0.0053125 7.0625 0 C10.03125 0.265625 10.03125 0.265625 12.03125 2.265625 C12.296875 5.234375 12.296875 5.234375 12.28125 8.765625 C12.28640625 9.9309375 12.2915625 11.09625 12.296875 12.296875 C12.03125 15.265625 12.03125 15.265625 10.03125 17.265625 C7.0625 17.49609375 7.0625 17.49609375 3.53125 17.453125 C2.3659375 17.44667969 1.200625 17.44023437 0 17.43359375 C-2.96875 17.265625 -2.96875 17.265625 -4.96875 16.265625 C-5.02259521 13.97421214 -5.06147087 11.68244312 -5.09375 9.390625 C-5.11695313 8.11445313 -5.14015625 6.83828125 -5.1640625 5.5234375 C-4.90803806 1.25294978 -4.28524488 0.38341665 0 0 Z " fill="#2C448D" transform="translate(64.96875,161.734375)"/>
<path d="M0 0 C1.06347656 0.00515625 2.12695312 0.0103125 3.22265625 0.015625 C4.28355469 0.01046875 5.34445313 0.0053125 6.4375 0 C9.28515625 0.265625 9.28515625 0.265625 12.28515625 2.265625 C12.6484375 5.234375 12.6484375 5.234375 12.59765625 8.765625 C12.59378906 9.9309375 12.58992188 11.09625 12.5859375 12.296875 C12.28515625 15.265625 12.28515625 15.265625 10.28515625 17.265625 C7.0625 17.49609375 7.0625 17.49609375 3.22265625 17.453125 C1.95292969 17.44667969 0.68320312 17.44023437 -0.625 17.43359375 C-3.71484375 17.265625 -3.71484375 17.265625 -4.71484375 16.265625 C-4.84041537 13.95569118 -4.89060104 11.64143964 -4.90234375 9.328125 C-4.91652344 8.06097656 -4.93070313 6.79382813 -4.9453125 5.48828125 C-4.65517828 1.43131964 -4.10762101 0.40189673 0 0 Z " fill="#2E468F" transform="translate(30.71484375,161.734375)"/>
<path d="M0 0 C1.1653125 0.00515625 2.330625 0.0103125 3.53125 0.015625 C4.6965625 0.01046875 5.861875 0.0053125 7.0625 0 C10.03125 0.265625 10.03125 0.265625 12.03125 2.265625 C12.296875 5.234375 12.296875 5.234375 12.28125 8.765625 C12.28640625 9.9309375 12.2915625 11.09625 12.296875 12.296875 C12.03125 15.265625 12.03125 15.265625 10.03125 17.265625 C7.0625 17.49609375 7.0625 17.49609375 3.53125 17.453125 C2.3659375 17.44667969 1.200625 17.44023437 0 17.43359375 C-2.96875 17.265625 -2.96875 17.265625 -4.96875 16.265625 C-5.02259521 13.97421214 -5.06147087 11.68244312 -5.09375 9.390625 C-5.11695312 8.11445313 -5.14015625 6.83828125 -5.1640625 5.5234375 C-4.90803806 1.25294978 -4.28524488 0.38341665 0 0 Z " fill="#2E468E" transform="translate(30.96875,127.734375)"/>
<path d="M0 0 C1.90072266 0.02126953 1.90072266 0.02126953 3.83984375 0.04296875 C5.74443359 0.05263672 5.74443359 0.05263672 7.6875 0.0625 C10.77734375 0.23046875 10.77734375 0.23046875 11.77734375 1.23046875 C11.90291537 3.54040257 11.95310104 5.85465411 11.96484375 8.16796875 C11.97902344 9.43511719 11.99320313 10.70226562 12.0078125 12.0078125 C11.77734375 15.23046875 11.77734375 15.23046875 9.77734375 17.23046875 C7.0625 17.49609375 7.0625 17.49609375 3.83984375 17.48046875 C2.24849609 17.48820312 2.24849609 17.48820312 0.625 17.49609375 C-2.22265625 17.23046875 -2.22265625 17.23046875 -5.22265625 15.23046875 C-5.5859375 12.26171875 -5.5859375 12.26171875 -5.53515625 8.73046875 C-5.53128906 7.56515625 -5.52742187 6.39984375 -5.5234375 5.19921875 C-5.09267466 0.94753353 -4.24449471 0.30354568 0 0 Z " fill="#2B438D" transform="translate(201.22265625,93.76953125)"/>
<path d="M0 0 C1.26714844 -0.01417969 2.53429688 -0.02835937 3.83984375 -0.04296875 C7.0625 0.1875 7.0625 0.1875 9.0625 2.1875 C9.328125 4.90234375 9.328125 4.90234375 9.3125 8.125 C9.31765625 9.18589844 9.3228125 10.24679688 9.328125 11.33984375 C9.0625 14.1875 9.0625 14.1875 7.0625 17.1875 C4.09375 17.55078125 4.09375 17.55078125 0.5625 17.5 C-1.18546875 17.49419922 -1.18546875 17.49419922 -2.96875 17.48828125 C-5.9375 17.1875 -5.9375 17.1875 -7.9375 15.1875 C-8.16796875 11.96484375 -8.16796875 11.96484375 -8.125 8.125 C-8.11855469 6.85527344 -8.11210937 5.58554688 -8.10546875 4.27734375 C-7.80142538 -1.31564007 -4.99819574 0.02537155 0 0 Z " fill="#2E468E" transform="translate(33.9375,93.8125)"/>
<path d="M0 0 C1.1653125 0.00515625 2.330625 0.0103125 3.53125 0.015625 C4.6965625 0.01046875 5.861875 0.0053125 7.0625 0 C10.03125 0.265625 10.03125 0.265625 12.03125 2.265625 C12.296875 5.234375 12.296875 5.234375 12.28125 8.765625 C12.28640625 9.9309375 12.2915625 11.09625 12.296875 12.296875 C12.03125 15.265625 12.03125 15.265625 10.03125 17.265625 C7.0625 17.53125 7.0625 17.53125 3.53125 17.515625 C2.3659375 17.52078125 1.200625 17.5259375 0 17.53125 C-2.96875 17.265625 -2.96875 17.265625 -4.96875 15.265625 C-5.234375 12.296875 -5.234375 12.296875 -5.21875 8.765625 C-5.22390625 7.6003125 -5.2290625 6.435 -5.234375 5.234375 C-4.86877441 1.1482508 -4.0861242 0.36560059 0 0 Z " fill="#2B438C" transform="translate(98.96875,161.734375)"/>
<path d="M0 0 C1.1653125 0.00515625 2.330625 0.0103125 3.53125 0.015625 C4.6965625 0.01046875 5.861875 0.0053125 7.0625 0 C10.03125 0.265625 10.03125 0.265625 12.03125 2.265625 C12.296875 5.234375 12.296875 5.234375 12.28125 8.765625 C12.28640625 9.9309375 12.2915625 11.09625 12.296875 12.296875 C12.03125 15.265625 12.03125 15.265625 10.03125 17.265625 C7.0625 17.53125 7.0625 17.53125 3.53125 17.515625 C2.3659375 17.52078125 1.200625 17.5259375 0 17.53125 C-2.96875 17.265625 -2.96875 17.265625 -4.96875 15.265625 C-5.234375 12.296875 -5.234375 12.296875 -5.21875 8.765625 C-5.22390625 7.6003125 -5.2290625 6.435 -5.234375 5.234375 C-4.86877441 1.1482508 -4.0861242 0.36560059 0 0 Z " fill="#2B438C" transform="translate(98.96875,127.734375)"/>
<path d="M0 0 C1.1653125 0.00515625 2.330625 0.0103125 3.53125 0.015625 C4.6965625 0.01046875 5.861875 0.0053125 7.0625 0 C10.03125 0.265625 10.03125 0.265625 12.03125 2.265625 C12.296875 5.234375 12.296875 5.234375 12.28125 8.765625 C12.28640625 9.9309375 12.2915625 11.09625 12.296875 12.296875 C12.03125 15.265625 12.03125 15.265625 10.03125 17.265625 C7.0625 17.53125 7.0625 17.53125 3.53125 17.515625 C2.3659375 17.52078125 1.200625 17.5259375 0 17.53125 C-2.96875 17.265625 -2.96875 17.265625 -4.96875 15.265625 C-5.234375 12.296875 -5.234375 12.296875 -5.21875 8.765625 C-5.22390625 7.6003125 -5.2290625 6.435 -5.234375 5.234375 C-4.86877441 1.1482508 -4.0861242 0.36560059 0 0 Z " fill="#2C448D" transform="translate(64.96875,127.734375)"/>
<path d="M0 0 C1.1653125 0.00515625 2.330625 0.0103125 3.53125 0.015625 C4.6965625 0.01046875 5.861875 0.0053125 7.0625 0 C10.03125 0.265625 10.03125 0.265625 12.03125 2.265625 C12.296875 5.234375 12.296875 5.234375 12.28125 8.765625 C12.28640625 9.9309375 12.2915625 11.09625 12.296875 12.296875 C12.03125 15.265625 12.03125 15.265625 10.03125 17.265625 C7.0625 17.53125 7.0625 17.53125 3.53125 17.515625 C2.3659375 17.52078125 1.200625 17.5259375 0 17.53125 C-2.96875 17.265625 -2.96875 17.265625 -4.96875 15.265625 C-5.234375 12.296875 -5.234375 12.296875 -5.21875 8.765625 C-5.22390625 7.6003125 -5.2290625 6.435 -5.234375 5.234375 C-4.86877441 1.1482508 -4.0861242 0.36560059 0 0 Z " fill="#2A438C" transform="translate(166.96875,93.734375)"/>
<path d="M0 0 C1.1653125 0.00515625 2.330625 0.0103125 3.53125 0.015625 C4.6965625 0.01046875 5.861875 0.0053125 7.0625 0 C10.03125 0.265625 10.03125 0.265625 12.03125 2.265625 C12.296875 5.234375 12.296875 5.234375 12.28125 8.765625 C12.28640625 9.9309375 12.2915625 11.09625 12.296875 12.296875 C12.03125 15.265625 12.03125 15.265625 10.03125 17.265625 C7.0625 17.53125 7.0625 17.53125 3.53125 17.515625 C2.3659375 17.52078125 1.200625 17.5259375 0 17.53125 C-2.96875 17.265625 -2.96875 17.265625 -4.96875 15.265625 C-5.234375 12.296875 -5.234375 12.296875 -5.21875 8.765625 C-5.22390625 7.6003125 -5.2290625 6.435 -5.234375 5.234375 C-4.86877441 1.1482508 -4.0861242 0.36560059 0 0 Z " fill="#2B438C" transform="translate(132.96875,93.734375)"/>
<path d="M0 0 C1.1653125 0.00515625 2.330625 0.0103125 3.53125 0.015625 C4.6965625 0.01046875 5.861875 0.0053125 7.0625 0 C10.03125 0.265625 10.03125 0.265625 12.03125 2.265625 C12.296875 5.234375 12.296875 5.234375 12.28125 8.765625 C12.28640625 9.9309375 12.2915625 11.09625 12.296875 12.296875 C12.03125 15.265625 12.03125 15.265625 10.03125 17.265625 C7.0625 17.53125 7.0625 17.53125 3.53125 17.515625 C2.3659375 17.52078125 1.200625 17.5259375 0 17.53125 C-2.96875 17.265625 -2.96875 17.265625 -4.96875 15.265625 C-5.234375 12.296875 -5.234375 12.296875 -5.21875 8.765625 C-5.22390625 7.6003125 -5.2290625 6.435 -5.234375 5.234375 C-4.86877441 1.1482508 -4.0861242 0.36560059 0 0 Z " fill="#2B438D" transform="translate(98.96875,93.734375)"/>
<path d="M0 0 C1.1653125 0.00515625 2.330625 0.0103125 3.53125 0.015625 C4.6965625 0.01046875 5.861875 0.0053125 7.0625 0 C10.03125 0.265625 10.03125 0.265625 12.03125 2.265625 C12.296875 5.234375 12.296875 5.234375 12.28125 8.765625 C12.28640625 9.9309375 12.2915625 11.09625 12.296875 12.296875 C12.03125 15.265625 12.03125 15.265625 10.03125 17.265625 C7.0625 17.53125 7.0625 17.53125 3.53125 17.515625 C2.3659375 17.52078125 1.200625 17.5259375 0 17.53125 C-2.96875 17.265625 -2.96875 17.265625 -4.96875 15.265625 C-5.234375 12.296875 -5.234375 12.296875 -5.21875 8.765625 C-5.22390625 7.6003125 -5.2290625 6.435 -5.234375 5.234375 C-4.86877441 1.1482508 -4.0861242 0.36560059 0 0 Z " fill="#2C448D" transform="translate(64.96875,93.734375)"/>
<path d="M0 0 C1.1653125 0.00515625 2.330625 0.0103125 3.53125 0.015625 C4.6965625 0.01046875 5.861875 0.0053125 7.0625 0 C10.03125 0.265625 10.03125 0.265625 12.03125 2.265625 C12.6774758 6.99960473 12.83566596 11.61848755 10.71875 15.953125 C6.38411255 18.07004096 1.76522973 17.9118508 -2.96875 17.265625 C-4.96875 15.265625 -4.96875 15.265625 -5.234375 12.296875 C-5.22921875 11.1315625 -5.2240625 9.96625 -5.21875 8.765625 C-5.22390625 7.6003125 -5.2290625 6.435 -5.234375 5.234375 C-4.86877441 1.1482508 -4.0861242 0.36560059 0 0 Z " fill="#2B438D" transform="translate(132.96875,127.734375)"/>
<path d="M0 0 C2.1328125 0.4765625 2.1328125 0.4765625 4.7578125 2.4765625 C6.58417854 6.46136113 6.50306206 9.33894617 5.1328125 13.4765625 C3.32500859 15.79055151 2.08441025 16.30461054 -0.76953125 16.8203125 C-4.67156473 17.11096676 -6.31128506 16.94907957 -9.3671875 14.3515625 C-11.13458054 10.96405917 -11.4949332 9.2430367 -10.8671875 5.4765625 C-8.29516271 0.33251291 -5.41020093 -0.33925352 0 0 Z " fill="#FDDC43" transform="translate(185.8671875,183.5234375)"/>
<path d="M0 0 C3.53571429 0.53571429 3.53571429 0.53571429 5 2 C5.08726223 3.78071246 5.10699041 5.5648314 5.09765625 7.34765625 C5.09282227 8.96704102 5.09282227 8.96704102 5.08789062 10.61914062 C5.07951172 11.75544922 5.07113281 12.89175781 5.0625 14.0625 C5.05798828 15.20267578 5.05347656 16.34285156 5.04882812 17.51757812 C5.03699747 20.34510351 5.0205141 23.1725264 5 26 C2.69 26 0.38 26 -2 26 C-2.05785647 22.04172765 -2.09354717 18.0835633 -2.125 14.125 C-2.14175781 12.99707031 -2.15851563 11.86914062 -2.17578125 10.70703125 C-2.18222656 9.63066406 -2.18867188 8.55429688 -2.1953125 7.4453125 C-2.20578613 6.45031738 -2.21625977 5.45532227 -2.22705078 4.43017578 C-2 2 -2 2 0 0 Z " fill="#3F5A9F" transform="translate(182,158)"/>
<path d="M0 0 C2.64590014 -0.02684679 5.29153096 -0.04676357 7.9375 -0.0625 C8.69224609 -0.07087891 9.44699219 -0.07925781 10.22460938 -0.08789062 C12.14994313 -0.09652441 14.07535581 -0.05224333 16 0 C17 1 17 1 17.125 4 C17 7 17 7 16 8 C13.30345146 8.07319621 10.63308542 8.09242537 7.9375 8.0625 C6.79958008 8.05573242 6.79958008 8.05573242 5.63867188 8.04882812 C3.75908129 8.0370068 1.87953101 8.01907078 0 8 C0 5.36 0 2.72 0 0 Z " fill="#4560A3" transform="translate(191,188)"/>
<path d="M0 0 C0.90492188 0.02320312 1.80984375 0.04640625 2.7421875 0.0703125 C4.10730469 0.09738281 4.10730469 0.09738281 5.5 0.125 C6.19867188 0.14820312 6.89734375 0.17140625 7.6171875 0.1953125 C7.9471875 2.8353125 8.2771875 5.4753125 8.6171875 8.1953125 C6.63809352 8.22217803 4.65889779 8.24164625 2.6796875 8.2578125 C1.57753906 8.26941406 0.47539062 8.28101563 -0.66015625 8.29296875 C-3.3828125 8.1953125 -3.3828125 8.1953125 -4.3828125 7.1953125 C-4.5703125 4.7578125 -4.5703125 4.7578125 -4.3828125 2.1953125 C-2.3828125 0.1953125 -2.3828125 0.1953125 0 0 Z " fill="#E80555" transform="translate(150.3828125,29.8046875)"/>
<path d="M0 0 C1.62463842 -0.05395478 3.24978541 -0.09277195 4.875 -0.125 C5.77992187 -0.14820312 6.68484375 -0.17140625 7.6171875 -0.1953125 C10 0 10 0 12 2 C12.125 4.625 12.125 4.625 12 7 C9.35541621 8.32229189 7.32238699 8.09677194 4.375 8.0625 C3.37210937 8.05347656 2.36921875 8.04445313 1.3359375 8.03515625 C0.56507812 8.02355469 -0.20578125 8.01195312 -1 8 C-0.67 5.36 -0.34 2.72 0 0 Z " fill="#E80455" transform="translate(81,30)"/>
<path d="M0 0 C1.22589844 0.01353516 1.22589844 0.01353516 2.4765625 0.02734375 C3.41628906 0.04474609 3.41628906 0.04474609 4.375 0.0625 C5.035 2.7025 5.695 5.3425 6.375 8.0625 C4.41696493 8.11639087 2.45851091 8.15524217 0.5 8.1875 C-0.59054688 8.21070313 -1.68109375 8.23390625 -2.8046875 8.2578125 C-5.625 8.0625 -5.625 8.0625 -7.625 6.0625 C-7.375 3.5 -7.375 3.5 -6.625 1.0625 C-4.21954362 -0.14022819 -2.67503047 -0.03821472 0 0 Z " fill="#E90454" transform="translate(54.625,29.9375)"/>
<path d="M0 0 C1.45823212 -0.0270043 2.91660675 -0.04639787 4.375 -0.0625 C5.18710938 -0.07410156 5.99921875 -0.08570312 6.8359375 -0.09765625 C9 0 9 0 11 1 C11.04254356 2.99954746 11.04080783 5.00041636 11 7 C10 8 10 8 7.27734375 8.09765625 C5.62412109 8.08025391 5.62412109 8.08025391 3.9375 8.0625 C2.83277344 8.05347656 1.72804687 8.04445313 0.58984375 8.03515625 C-0.69212891 8.01775391 -0.69212891 8.01775391 -2 8 C-1.34 5.36 -0.68 2.72 0 0 Z " fill="#E80354" transform="translate(180,30)"/>
<path d="M0 0 C1.77503906 0.03480469 1.77503906 0.03480469 3.5859375 0.0703125 C5.36871094 0.09738281 5.36871094 0.09738281 7.1875 0.125 C8.10273437 0.14820313 9.01796875 0.17140625 9.9609375 0.1953125 C9.9609375 0.5253125 9.9609375 0.8553125 9.9609375 1.1953125 C6.6609375 1.5253125 3.3609375 1.8553125 -0.0390625 2.1953125 C-0.00425781 3.11054688 0.03054687 4.02578125 0.06640625 4.96875 C0.09347656 6.15726563 0.12054688 7.34578125 0.1484375 8.5703125 C0.18324219 9.75367188 0.21804687 10.93703125 0.25390625 12.15625 C0.15722656 13.15914062 0.06054688 14.16203125 -0.0390625 15.1953125 C-1.0290625 15.8553125 -2.0190625 16.5153125 -3.0390625 17.1953125 C-3.6990625 16.8653125 -4.3590625 16.5353125 -5.0390625 16.1953125 C-5.09290771 13.90389964 -5.13178337 11.61213062 -5.1640625 9.3203125 C-5.18726563 8.04414063 -5.21046875 6.76796875 -5.234375 5.453125 C-4.97553706 1.13570819 -4.34303849 0.27911558 0 0 Z " fill="#3D589F" transform="translate(65.0390625,161.8046875)"/>
<path d="M0 0 C1.77503906 0.03480469 1.77503906 0.03480469 3.5859375 0.0703125 C5.36871094 0.09738281 5.36871094 0.09738281 7.1875 0.125 C8.10273437 0.14820313 9.01796875 0.17140625 9.9609375 0.1953125 C9.9609375 0.5253125 9.9609375 0.8553125 9.9609375 1.1953125 C6.6609375 1.5253125 3.3609375 1.8553125 -0.0390625 2.1953125 C-0.00425781 3.11054688 0.03054687 4.02578125 0.06640625 4.96875 C0.09347656 6.15726563 0.12054688 7.34578125 0.1484375 8.5703125 C0.18324219 9.75367188 0.21804687 10.93703125 0.25390625 12.15625 C0.15722656 13.15914062 0.06054688 14.16203125 -0.0390625 15.1953125 C-1.0290625 15.8553125 -2.0190625 16.5153125 -3.0390625 17.1953125 C-5.0390625 15.1953125 -5.0390625 15.1953125 -5.3046875 12.2265625 C-5.29953125 11.06125 -5.294375 9.8959375 -5.2890625 8.6953125 C-5.29421875 7.53 -5.299375 6.3646875 -5.3046875 5.1640625 C-4.93469348 1.0288352 -4.1437256 0.26630627 0 0 Z " fill="#3D589F" transform="translate(99.0390625,161.8046875)"/>
<path d="M0 0 C0.99 0.33 1.98 0.66 3 1 C3.05384521 3.29141286 3.09272087 5.58318188 3.125 7.875 C3.14820313 9.15117188 3.17140625 10.42734375 3.1953125 11.7421875 C3 15 3 15 1 17 C0.01 16.34 -0.98 15.68 -2 15 C-2.36328125 12.03125 -2.36328125 12.03125 -2.3125 8.5 C-2.30863281 7.3346875 -2.30476562 6.169375 -2.30078125 4.96875 C-2 2 -2 2 0 0 Z " fill="#4661A5" transform="translate(198,94)"/>
<path d="M0 0 C0.99 0.66 1.98 1.32 3 2 C3.328125 4.96875 3.328125 4.96875 3.25 8.5 C3.22679687 10.24796875 3.22679687 10.24796875 3.203125 12.03125 C3 15 3 15 2 17 C0.68 16.34 -0.64 15.68 -2 15 C-2.05386629 12.87527424 -2.09273071 10.75016348 -2.125 8.625 C-2.14820313 7.44164063 -2.17140625 6.25828125 -2.1953125 5.0390625 C-2 2 -2 2 0 0 Z " fill="#435EA3" transform="translate(164,94)"/>
<path d="M0 0 C1.32 0.66 2.64 1.32 4 2 C4.08107583 3.93681161 4.13922475 5.8745934 4.1875 7.8125 C4.22230469 8.89144531 4.25710937 9.97039062 4.29296875 11.08203125 C4 14 4 14 2.48828125 15.88671875 C1.99714844 16.25410156 1.50601562 16.62148437 1 17 C-1 15 -1 15 -1.23046875 11.77734375 C-1.20919922 9.87662109 -1.20919922 9.87662109 -1.1875 7.9375 C-1.18105469 6.66777344 -1.17460937 5.39804688 -1.16796875 4.08984375 C-1 1 -1 1 0 0 Z " fill="#3D59A0" transform="translate(27,94)"/>
<path d="M0 0 C1.48828125 1.11328125 1.48828125 1.11328125 3 3 C3.29296875 5.91796875 3.29296875 5.91796875 3.1875 9.1875 C3.14689453 10.81751953 3.14689453 10.81751953 3.10546875 12.48046875 C3.07066406 13.31191406 3.03585938 14.14335937 3 15 C1.02 15.99 1.02 15.99 -1 17 C-2.93341947 15.06658053 -2.17449133 11.62520879 -2.1875 9.0625 C-2.20167969 7.79535156 -2.21585938 6.52820313 -2.23046875 5.22265625 C-2 2 -2 2 0 0 Z " fill="#3D59A0" transform="translate(28,162)"/>
<path d="M0 0 C0.99 0.66 1.98 1.32 3 2 C3.3984375 4.96875 3.3984375 4.96875 3.375 8.5 C3.38273438 9.6653125 3.39046875 10.830625 3.3984375 12.03125 C3.26695312 13.0109375 3.13546875 13.990625 3 15 C2.01 15.66 1.02 16.32 0 17 C-2 15 -2 15 -2.265625 12.03125 C-2.26046875 10.8659375 -2.2553125 9.700625 -2.25 8.5 C-2.25515625 7.3346875 -2.2603125 6.169375 -2.265625 4.96875 C-2 2 -2 2 0 0 Z " fill="#405BA2" transform="translate(130,128)"/>
<path d="M0 0 C0.99 0.66 1.98 1.32 3 2 C3.3984375 4.96875 3.3984375 4.96875 3.375 8.5 C3.38273437 9.6653125 3.39046875 10.830625 3.3984375 12.03125 C3.26695313 13.0109375 3.13546875 13.990625 3 15 C2.01 15.66 1.02 16.32 0 17 C-2 15 -2 15 -2.265625 12.03125 C-2.26046875 10.8659375 -2.2553125 9.700625 -2.25 8.5 C-2.25515625 7.3346875 -2.2603125 6.169375 -2.265625 4.96875 C-2 2 -2 2 0 0 Z " fill="#3D59A0" transform="translate(96,128)"/>
<path d="M0 0 C0.99 0.66 1.98 1.32 3 2 C3.3984375 4.96875 3.3984375 4.96875 3.375 8.5 C3.38273437 9.6653125 3.39046875 10.830625 3.3984375 12.03125 C3.26695313 13.0109375 3.13546875 13.990625 3 15 C2.01 15.66 1.02 16.32 0 17 C-2 15 -2 15 -2.265625 12.03125 C-2.26046875 10.8659375 -2.2553125 9.700625 -2.25 8.5 C-2.25515625 7.3346875 -2.2603125 6.169375 -2.265625 4.96875 C-2 2 -2 2 0 0 Z " fill="#3C589F" transform="translate(62,128)"/>
<path d="M0 0 C2.44419658 1.85577889 2.9649703 2.74964066 3.3984375 5.84765625 C3.39070313 6.90855469 3.38296875 7.96945313 3.375 9.0625 C3.38273437 10.12597656 3.39046875 11.18945312 3.3984375 12.28515625 C3.26695313 13.18105469 3.13546875 14.07695312 3 15 C2.01 15.66 1.02 16.32 0 17 C-0.66 16.67 -1.32 16.34 -2 16 C-2.05384521 13.70858714 -2.09272087 11.41681812 -2.125 9.125 C-2.14820312 7.84882813 -2.17140625 6.57265625 -2.1953125 5.2578125 C-2 2 -2 2 0 0 Z " fill="#3C589F" transform="translate(28,128)"/>
<path d="M0 0 C0.99 0.66 1.98 1.32 3 2 C3.3984375 4.96875 3.3984375 4.96875 3.375 8.5 C3.38273438 9.6653125 3.39046875 10.830625 3.3984375 12.03125 C3.26695312 13.0109375 3.13546875 13.990625 3 15 C2.01 15.66 1.02 16.32 0 17 C-2 15 -2 15 -2.265625 12.03125 C-2.26046875 10.8659375 -2.2553125 9.700625 -2.25 8.5 C-2.25515625 7.3346875 -2.2603125 6.169375 -2.265625 4.96875 C-2 2 -2 2 0 0 Z " fill="#3F5AA1" transform="translate(130,94)"/>
<path d="M0 0 C0.99 0.66 1.98 1.32 3 2 C3.3984375 4.96875 3.3984375 4.96875 3.375 8.5 C3.38273437 9.6653125 3.39046875 10.830625 3.3984375 12.03125 C3.26695313 13.0109375 3.13546875 13.990625 3 15 C2.01 15.66 1.02 16.32 0 17 C-2 15 -2 15 -2.265625 12.03125 C-2.26046875 10.8659375 -2.2553125 9.700625 -2.25 8.5 C-2.25515625 7.3346875 -2.2603125 6.169375 -2.265625 4.96875 C-2 2 -2 2 0 0 Z " fill="#3D59A0" transform="translate(96,94)"/>
<path d="M0 0 C0.99 0.66 1.98 1.32 3 2 C3.3984375 4.96875 3.3984375 4.96875 3.375 8.5 C3.38273437 9.6653125 3.39046875 10.830625 3.3984375 12.03125 C3.26695313 13.0109375 3.13546875 13.990625 3 15 C2.01 15.66 1.02 16.32 0 17 C-2 15 -2 15 -2.265625 12.03125 C-2.26046875 10.8659375 -2.2553125 9.700625 -2.25 8.5 C-2.25515625 7.3346875 -2.2603125 6.169375 -2.265625 4.96875 C-2 2 -2 2 0 0 Z " fill="#3C58A0" transform="translate(62,94)"/>
</svg>
